<svg xmlns="http://www.w3.org/2000/svg" xmlns:xlink="http://www.w3.org/1999/xlink" viewBox="0 0 226.77 226.77"><defs><style>.cls-1{fill:#ededee;}.cls-2{fill:url(#linear-gradient);}.cls-3{fill:url(#linear-gradient-2);}.cls-4{fill:url(#linear-gradient-3);}.cls-5{fill:url(#linear-gradient-4);}</style><linearGradient id="linear-gradient" x1="52.73" y1="52.98" x2="101.34" y2="119.71" gradientUnits="userSpaceOnUse"><stop offset="0" stop-color="#ff6100"/><stop offset="0.77" stop-color="#ff8e00"/><stop offset="1" stop-color="#ff9d00"/></linearGradient><linearGradient id="linear-gradient-2" x1="137.83" y1="127.34" x2="199.36" y2="169.84" gradientUnits="userSpaceOnUse"><stop offset="0" stop-color="#ff9d00"/><stop offset="0.23" stop-color="#ff8e00"/><stop offset="1" stop-color="#ff6100"/></linearGradient><linearGradient id="linear-gradient-3" x1="72.93" y1="70.4" x2="159.38" y2="43.06" gradientUnits="userSpaceOnUse"><stop offset="0" stop-color="#adadad"/><stop offset="0.01" stop-color="#b3b3b3"/><stop offset="0.07" stop-color="#c8c8c9"/><stop offset="0.13" stop-color="#d9d9da"/><stop offset="0.21" stop-color="#e4e4e5"/><stop offset="0.33" stop-color="#ebebec"/><stop offset="0.64" stop-color="#ededee"/></linearGradient><linearGradient id="linear-gradient-4" x1="65.39" y1="106.18" x2="154.12" y2="106.04" gradientUnits="userSpaceOnUse"><stop offset="0.27" stop-color="#ededee"/><stop offset="0.58" stop-color="#ebebec"/><stop offset="0.73" stop-color="#e3e3e4"/><stop offset="0.85" stop-color="#d6d6d7"/><stop offset="0.96" stop-color="#c4c4c4"/><stop offset="1" stop-color="#bababa"/></linearGradient></defs><g id="Layer_16" data-name="Layer 16"><polygon class="cls-1" points="208.23 58.44 208.23 168.38 113.02 223.35 83.19 206.13 81.03 204.88 17.8 168.38 17.8 58.44 113.02 3.46 208.23 58.44"/><path class="cls-2" d="M82.33,104.54l52.91,38.82-76.3,40.19L25.25,164.09V62.73L113,12.06l31.63,18.26L71.47,68.88h0l-.77,10.4A28.66,28.66,0,0,0,82.33,104.54Z"/><path class="cls-3" d="M200.79,62.73V164.09L113,214.77l-31.22-18,54.84-28.9a38,38,0,0,0,20.17-30.78l.39-5.28L91.48,83.57l76-40.06Z"/><path class="cls-1" d="M157.2,131.78l-.39,5.28a38,38,0,0,1-20.17,30.78L81.8,196.74h0L74,200.83,51.17,187.64l7.77-4.09h0l76.29-40.19Z"/><polygon class="cls-4" points="175.27 39.41 167.5 43.51 91.48 83.57 79.85 75.03 71.47 68.89 71.47 68.88 144.65 30.32 152.43 26.22 175.27 39.41"/><path class="cls-5" d="M157.2,131.78l-22,11.58L82.33,104.54A28.66,28.66,0,0,1,70.7,79.29l.77-10.4L79.85,75l11.63,8.54Z"/></g></svg>