<svg xmlns="http://www.w3.org/2000/svg" width="304" height="304" version="1.0" viewBox="0 0 228 228"><path d="M70 38.4L26.5 63.5l-.2 51-.3 51 16.6 9.4c14.4 8.1 16.9 9.2 18.9 8.3a8545 8545 0 0073.2-38.6c.1-.1-11.1-8.5-25-18.6-29.8-21.9-32-23.8-35.5-30.4-2.4-4.5-2.7-6.2-2.7-14.8.1-8.5.3-10 2-11.2 1.1-.8 17.5-9.7 36.5-19.7l34.8-18.4c.2-.2-28.3-16.9-30.8-18-.3-.2-20.1 11-44 24.9z"/><path d="M131.2 64.8a624.7 624.7 0 00-37 20.3c.2.4 11.8 9.2 25.8 19.5s28.4 20.9 31.9 23.7l6.3 5.1-.6 6a42.5 42.5 0 01-11.9 24.1c-4.1 3.5-18.7 11.7-47.4 26.6-7.9 4.1-14.3 7.7-14.3 8 0 .3 6.7 4.5 14.9 9.3l14.9 8.6 43.8-25.3 43.9-25.2.3-45c.2-24.8 0-47.7-.3-51l-.6-6-10.2-5.7-16.2-9.2-6.1-3.5-37.2 19.7z"/></svg>